HIERARCHY
ROOT simHips
{
  OFFSET 0.730076 95.1417 -1.42082
  CHANNELS 6 Xposition Yposition Zposition Zrotation Xrotation Yrotation
  JOINT simSpine
  {
    OFFSET -0.000355721 21.3001 -0.016921
    CHANNELS 3 Zrotation Xrotation Yrotation
    JOINT simLeftArm
    {
      OFFSET 13.5181 21.3012 0
      CHANNELS 3 Zrotation Xrotation Yrotation
      JOINT simLeftForeArm
      {
        OFFSET 24.5783 0 0
        CHANNELS 3 Zrotation Xrotation Yrotation
        JOINT simLeftHand
        {
          OFFSET 24.5783 0 0
          CHANNELS 3 Zrotation Xrotation Yrotation
          End Site
          {
            OFFSET 7.32568 1.52588e-05 0.0169305
          }
        }
      }
    }
    JOINT simHead
    {
      OFFSET 0 27.4458 -0.00489235
      CHANNELS 3 Zrotation Xrotation Yrotation
      End Site
      {
        OFFSET 0 0 0
      }
    }
    JOINT simRightArm
    {
      OFFSET -13.5174 21.3012 0
      CHANNELS 3 Zrotation Xrotation Yrotation
      JOINT simRightForeArm
      {
        OFFSET -24.5783 0 0
        CHANNELS 3 Zrotation Xrotation Yrotation
        JOINT simRightHand
        {
          OFFSET -24.5783 0 0
          CHANNELS 3 Zrotation Xrotation Yrotation
          End Site
          {
            OFFSET -7.32568 1.52588e-05 0.0169305
          }
        }
      }
    }
  }
  JOINT simRightUpLeg
  {
    OFFSET -8.44614 -9.41038 0.835684
    CHANNELS 3 Zrotation Xrotation Yrotation
    JOINT simRightLeg
    {
      OFFSET 0 -40.9639 0
      CHANNELS 3 Zrotation Xrotation Yrotation
      JOINT simRightFoot
      {
        OFFSET 0 -40.9639 0
        CHANNELS 3 Zrotation Xrotation Yrotation
        End Site
        {
          OFFSET 0.50614 -9.67405 14.6709
        }
      }
    }
  }
  JOINT simLeftUpLeg
  {
    OFFSET 8.44614 -9.41038 0.835684
    CHANNELS 3 Zrotation Xrotation Yrotation
    JOINT simLeftLeg
    {
      OFFSET 0 -40.9639 0
      CHANNELS 3 Zrotation Xrotation Yrotation
      JOINT simLeftFoot
      {
        OFFSET 0 -40.9639 0
        CHANNELS 3 Zrotation Xrotation Yrotation
        End Site
        {
          OFFSET -0.50614 -9.67405 14.6709
        }
      }
    }
  }
}
MOTION
Frames:	16
Frame Time:	0.0333333
-2.98562 97.9953 14.2206 0.608285 21.976 5.84898 0.0464215 2.63086 6.83468 -58.7338 14.4822 -23.5212 0.00039275 -1.02751e-05 -132.329 20.3003 8.76295 -18.6525 12.6412 6.5314 -16.6305 32.4806 -26.2184 57.473 0.000250777 1.90008e-05 51.4923 25.5056 -31.0026 39.5636 -9.9608 -17.3285 -10.7382 -6.9847 42.8813 -1.27145 28.8297 -5.78966 -24.2169 -2.65719 -56.0038 2.60933 0.0300521 42.3347 -8.8099 7.67682 -8.59112 -27.6648 
-3.52641 97.5532 15.0309 -1.73088 21.5476 10.6924 0.249787 2.81429 6.54393 -58.8218 13.352 -24.2988 0.000392717 -1.03115e-05 -132.515 16.9446 5.92339 -18.1879 15.9267 1.61321 -18.3622 40.3198 -30.817 55.118 0.000250246 1.83127e-05 53.1251 17.5071 -31.5954 35.5454 -7.6228 -15.9019 -10.4973 -6.09763 43.3086 -1.59226 29.0088 -5.13074 -24.2827 -5.10039 -57.0417 -0.378004 2.00948 45.0742 -10.0837 8.4555 -9.43216 -27.6396 
-3.68976 97.1681 15.8473 -3.3634 20.8106 13.1155 0.325648 2.90465 6.17163 -59.2315 12.2747 -22.6714 0.000392833 -1.01833e-05 -131.865 15.416 4.70154 -17.2094 17.2259 0.742973 -18.8172 42.0698 -34.5541 50.7195 0.000249882 1.78179e-05 54.2778 12.7956 -32.725 34.3961 -6.26175 -14.386 -10.0686 -6.47668 43.745 -1.38645 29.8557 -3.13793 -20.6129 -5.6162 -57.6723 -1.51502 3.44861 47.6942 -11.1123 8.78224 -10.0202 -27.5185 
-3.45904 96.9183 16.5749 -4.09914 20.3045 13.4347 0.224383 2.89738 6.03618 -60.1227 11.7976 -20.7896 0.000392926 -1.00788e-05 -131.34 14.6544 4.73496 -16.1786 17.1281 2.27255 -18.9551 40.1363 -35.7352 46.6811 0.000249155 1.67607e-05 56.6868 11.1568 -31.6506 31.4984 -6.09753 -12.9329 -9.63924 -7.55158 43.5933 -0.930769 30.7477 -0.228213 -15.1195 -4.98005 -57.8834 -1.3663 4.1339 49.4878 -11.6682 8.58932 -10.5397 -27.4445 
-2.97755 96.8636 17.0469 -4.38173 20.1009 12.4369 0.096738 2.8564 6.18027 -61.7325 11.7524 -19.8923 0.000392919 -1.00868e-05 -131.38 13.4105 5.60727 -15.4108 16.86 4.29201 -18.687 38.7888 -35.4479 45.1446 0.000248239 1.52755e-05 59.9638 13.0102 -29.0997 28.5596 -6.66105 -11.996 -9.55173 -8.38383 43.0321 -0.866437 30.9627 2.50341 -10.1674 -3.57409 -57.8182 -0.16863 4.38231 50.3274 -11.9068 8.26476 -10.9674 -27.3758 
-2.45416 97.0161 17.2405 -4.57803 20.0692 10.8077 0.0435629 2.82653 6.38223 -63.2422 11.8836 -20.0043 0.0003929 -1.01085e-05 -131.489 11.5042 7.12027 -14.6051 17.0541 5.85057 -17.7491 39.511 -34.9834 45.6771 0.000247317 1.35557e-05 63.6282 16.4903 -27.2577 27.4669 -7.28151 -11.6521 -9.92253 -8.38324 42.3399 -1.43836 30.468 3.88523 -7.33968 -1.57183 -57.2494 1.62237 4.59221 49.9702 -12.1697 7.17594 -11.7036 -27.2276 
-2.01026 97.3073 17.261 -4.73816 20.1762 8.7802 0.0251105 2.8017 6.45303 -63.662 12.0003 -20.5811 0.000392962 -1.00377e-05 -131.135 9.75932 8.89965 -13.3892 17.4057 6.74839 -16.1077 41.7439 -34.5618 46.8787 0.00024633 1.13505e-05 68.165 19.0249 -26.4547 26.9012 -7.66759 -11.6406 -10.5756 -7.65396 41.4386 -2.47242 29.9804 3.51387 -6.88897 0.837836 -56.0142 3.45205 4.82504 48.3073 -12.5386 4.56742 -12.9858 -27.2078 
-1.65455 97.6075 17.1587 -4.81906 20.381 6.10326 -0.00281409 2.78701 6.36552 -62.9525 11.891 -21.1705 0.000393122 -9.85131e-06 -130.212 8.65694 10.656 -11.8296 17.3053 7.22997 -13.7402 44.964 -33.4833 48.59 0.000245383 8.61855e-06 73.5957 19.6953 -25.4697 24.8649 -7.73636 -11.9528 -11.2552 -6.75854 40.4841 -3.11088 29.6034 1.46633 -8.23612 3.91019 -55.0286 5.59863 4.8964 46.3762 -12.5338 0.798269 -12.2544 -27.8441 
-1.32661 97.8562 16.8991 -4.80802 20.6043 2.54066 -0.0443357 2.82784 6.16065 -61.8388 11.4635 -21.7631 0.000393357 -9.56633e-06 -128.825 7.86823 12.3195 -10.2507 16.5015 7.69629 -10.7131 49.0067 -30.8416 51.2195 0.000244682 5.72145e-06 79.1942 18.9812 -23.6025 21.2109 -7.62043 -12.5922 -11.895 -5.90561 39.6386 -3.61957 29.2323 -1.4953 -9.57911 7.40674 -54.7812 8.34581 4.72616 46.1274 -12.199 0.326467 -12.2174 -28.013 
-1.00842 98.0928 16.438 -4.68789 20.7951 -1.73067 -0.107776 2.95981 5.88722 -60.9602 10.92 -22.509 0.000393653 -9.18752e-06 -127.021 7.12611 13.7727 -8.9672 15.1625 8.37215 -7.38501 53.4011 -26.4042 54.3781 0.000244289 3.00337e-06 84.3521 17.4807 -21.2407 17.2354 -7.50598 -13.462 -12.6186 -4.92008 38.9251 -4.16353 29.0107 -4.55331 -10.0001 11.9027 -54.2787 12.0306 4.03029 45.9473 -11.6845 -0.0305944 -12.1253 -27.9479 
-0.643077 98.2815 15.8421 -4.47445 20.9574 -6.33091 -0.165975 3.14748 5.6077 -60.5284 10.5798 -23.3277 0.000393999 -8.70859e-06 -124.801 6.54496 14.9207 -8.08689 13.49 9.1188 -4.12983 57.5102 -20.7173 57.2182 0.000244146 5.53298e-07 88.9611 15.2943 -19.1993 13.9675 -7.54358 -14.4972 -13.462 -3.56199 38.4337 -4.92694 29.1649 -6.94957 -9.78862 16.1403 -53.56 15.5795 3.20708 46.049 -11.1082 -0.100328 -12.2201 -25.3794 
-0.255973 98.3849 15.1417 -4.10931 21.1041 -11.0484 -0.223789 3.33601 5.35759 -60.4234 10.382 -24.0961 0.000394358 -8.16846e-06 -122.366 6.25871 15.8546 -7.3801 11.5695 9.66321 -0.740703 61.0121 -14.4304 59.2347 0.000244188 -1.69947e-06 93.1923 12.4502 -17.9088 11.6334 -7.62834 -15.8658 -14.247 -2.11451 38.3207 -5.87163 29.3278 -8.53443 -10.0017 20.1842 -52.7648 18.9892 2.33786 46.308 -10.5245 -0.169628 -12.3233 -22.6866 
0.121158 98.3716 14.3556 -3.49874 21.1597 -15.8035 -0.287771 3.52255 5.1284 -60.3478 9.87514 -24.8932 0.000394656 -7.67788e-06 -120.21 6.22835 16.5321 -6.59513 9.34436 9.84346 3.10548 63.7868 -7.94523 60.2691 0.000244377 -3.78701e-06 97.1284 9.06273 -17.1659 10.0311 -7.66086 -17.6194 -14.8311 -0.998045 38.6338 -6.77936 28.7086 -9.73948 -11.0321 23.9542 -51.9047 22.3109 1.32639 46.7904 -9.78188 -0.210887 -12.4705 -20.0845 
0.487326 98.2145 13.5532 -2.619 20.9952 -20.4718 -0.363652 3.71742 4.89881 -60.0534 8.84549 -25.8017 0.000394861 -7.31553e-06 -118.648 6.56812 16.8137 -6.1459 6.79607 9.71609 7.30955 65.6718 -1.69256 60.4946 0.000244663 -5.62239e-06 100.617 5.18333 -16.4291 8.83105 -8.03581 -18.817 -15.2863 -0.31048 38.3523 -7.43269 28.105 -9.23883 -12.8119 27.2397 -50.9779 25.3677 0.146958 47.5835 -8.89681 -0.194652 -12.7518 -17.6246 
0.833301 97.8857 12.7488 -1.58905 20.5637 -24.9545 -0.423435 3.8987 4.68647 -59.5224 7.42746 -26.691 0.000395 -7.05339e-06 -117.532 7.73156 16.8326 -6.61791 4.08733 9.49144 11.7438 66.4828 3.83831 60.5528 0.000244983 -7.12238e-06 103.497 1.62536 -15.8819 7.8829 -8.58336 -19.7041 -15.7192 0.0148692 38.0622 -7.83475 26.805 -8.2656 -13.5559 30.0077 -50.084 28.0219 -1.06288 48.7872 -8.01111 -0.174977 -13.2385 -15.2461 
1.15279 97.498 11.9696 -0.540298 19.9057 -29.3182 -0.452896 4.04223 4.52864 -58.9977 5.72193 -27.0109 0.000395113 -6.83258e-06 -116.601 9.93754 16.8544 -8.02693 1.32711 9.37315 16.4747 66.1493 8.57098 60.7311 0.000245279 -8.25758e-06 105.699 -1.77452 -15.2708 6.984 -9.22717 -20.1903 -16.0143 -0.0205366 37.5108 -7.92437 25.5515 -7.01768 -12.6229 32.3402 -49.0555 30.3301 -2.19617 50.0703 -7.22144 -0.223374 -13.8104 -12.9755 
